<?xml version="1.0" encoding="utf-8"?>
<!-- Generator: Adobe Illustrator 22.1.0, SVG Export Plug-In . SVG Version: 6.00 Build 0)  -->
<svg version="1.1" id="Capa_1" xmlns="http://www.w3.org/2000/svg" xmlns:xlink="http://www.w3.org/1999/xlink" x="0px" y="0px"
	 viewBox="0 0 491.1 491.1" style="enable-background:new 0 0 491.1 491.1;" xml:space="preserve">
<style type="text/css">
	.st0{fill:#009999;}
</style>
<g id="XMLID_117_">
	<path id="XMLID_121_" class="st0" d="M310.1,245.6l51.9-51.9c3.7-3.7,5.8-8.7,5.8-13.9c0-5.2-2.1-10.2-5.8-13.9l-36.8-36.8
		c-7.7-7.7-20.1-7.7-27.8,0L245.6,181l-51.9-51.9c-7.7-7.7-20.1-7.7-27.8,0l-36.8,36.8c-3.7,3.7-5.8,8.7-5.8,13.9
		c0,5.2,2.1,10.2,5.8,13.9l51.9,51.9l-51.9,51.9c-7.7,7.7-7.7,20.1,0,27.8l36.8,36.8c7.7,7.7,20.1,7.7,27.8,0l51.9-51.9l51.9,51.9
		c7.7,7.7,20.1,7.7,27.8,0l36.8-36.8c7.7-7.7,7.7-20.1,0-27.8L310.1,245.6z"/>
	<path id="XMLID_118_" class="st0" d="M245.6,0C110.2,0,0,110.2,0,245.6C0,381,110.2,491.1,245.6,491.1
		c135.4,0,245.6-110.2,245.6-245.5C491.1,110.2,381,0,245.6,0z M245.6,438.2c-106.2,0-192.6-86.4-192.6-192.6
		c0-106.2,86.4-192.6,192.6-192.6c106.2,0,192.6,86.4,192.6,192.6C438.2,351.8,351.8,438.2,245.6,438.2z"/>
</g>
</svg>
