<?xml version="1.0" encoding="utf-8"?>
<!-- Generator: Adobe Illustrator 22.1.0, SVG Export Plug-In . SVG Version: 6.00 Build 0)  -->
<svg version="1.1" xmlns="http://www.w3.org/2000/svg" xmlns:xlink="http://www.w3.org/1999/xlink" x="0px" y="0px"
	 viewBox="0 0 102 68" style="enable-background:new 0 0 102 68;" xml:space="preserve">
<style type="text/css">
	.st0{fill:none;stroke:#000000;stroke-miterlimit:10;}
</style>
<g id="Camada_1">
	<g>
		<path d="M15,62.8c-6.3,0-9.5-3.3-9.5-10V14c0-6.7,3.1-10.1,9.4-10.1h7.5c6.3,0,9.4,3.4,9.4,10.1v38.8c0,6.7-3.2,10-9.5,10H15z
			 M16.9,55.7h4c2.1,0,3.1-1.1,3.1-3.4V14.5c0-2.3-1.2-3.4-3.5-3.4h-3.7c-2.3,0-3.4,1.1-3.4,3.4v37.7C13.4,54.5,14.5,55.7,16.9,55.7
			z"/>
	</g>
	<g>
		<path d="M36.3,4.4h5.1c2.2,0,3.4,1.2,3.4,3.6v6.2c0,2.4-1.1,3.5-3.3,3.5h-2.3v7.5h-2.8V4.4z M39.1,15.2h1.8c0.7,0,1.1-0.4,1.1-1.2
			V8.2C42,7.4,41.5,7,40.7,7h-1.6V15.2z"/>
		<path d="M50.2,25.3c-2.2,0-3.4-1.2-3.4-3.5V8c0-2.4,1.1-3.6,3.3-3.6h2.7c2.2,0,3.3,1.2,3.3,3.6v13.7c0,2.4-1.1,3.5-3.4,3.5H50.2z
			 M50.8,22.7h1.4c0.7,0,1.1-0.4,1.1-1.2V8.2c0-0.8-0.4-1.2-1.2-1.2h-1.3c-0.8,0-1.2,0.4-1.2,1.2v13.3C49.6,22.3,50,22.7,50.8,22.7z
			"/>
		<path d="M58.6,4.4h5.5c2.1,0,3.2,1.2,3.2,3.6v5.1c0,1.8-0.6,3-1.7,3.5l1.9,8.7h-2.6l-1.8-8.4h-1.7v8.4h-2.8V4.4z M61.4,14.5h1.8
			c0.8,0,1.2-0.5,1.2-1.5V8.5c0-1-0.4-1.5-1.2-1.5h-1.8V14.5z"/>
		<path d="M74,7v18.3h-2.8V7h-2.7V4.4h8.1V7H74z"/>
		<path d="M80.9,25.3h-2.8V8c0-2.4,1.1-3.6,3.3-3.6h2.1c2.2,0,3.3,1.2,3.3,3.6v17.3h-2.8v-7.6h-3.2V25.3z M84.1,15.1V8.2
			c0-0.8-0.4-1.2-1.2-1.2h-0.8c-0.8,0-1.2,0.4-1.2,1.2v6.9H84.1z"/>
		<path d="M96,25.3h-6.6V4.4h2.8v18.3H96V25.3z"/>
	</g>
	<g>
		<path d="M46.1,57.5v1.6c0,2.8-1.3,4.2-4,4.2H40c-2.6,0-4-1.4-4-4.2V42.8c0-2.8,1.3-4.2,4-4.2h2.1c2.6,0,4,1.4,4,4.2v2.8h-3.3V43
			c0-1-0.5-1.4-1.5-1.4h-0.7c-0.9,0-1.3,0.5-1.3,1.4v15.9c0,1,0.4,1.4,1.3,1.4h0.8c0.9,0,1.3-0.5,1.3-1.4v-1.3H46.1z"/>
		<path d="M48.7,63.3V38.6h8.2v3H52v7.5h4.3v3H52v8.2h4.9v3H48.7z"/>
		<path d="M62.4,63.3h-3.3V42.8c0-2.8,1.3-4.2,4-4.2h2.5c2.6,0,4,1.4,4,4.2v20.5h-3.3v-9.1h-3.8V63.3z M66.2,51.3V43
			c0-1-0.5-1.4-1.4-1.4h-0.9c-1,0-1.4,0.5-1.4,1.4v8.2H66.2z"/>
		<path d="M72.5,38.6H79c2.5,0,3.8,1.4,3.8,4.2v6.1c0,2.2-0.7,3.5-2,4.1l2.3,10.3H80l-2.2-10h-2v10h-3.3V38.6z M75.8,50.5H78
			c1,0,1.5-0.6,1.5-1.8v-5.3c0-1.2-0.5-1.8-1.5-1.8h-2.2V50.5z"/>
		<path d="M88.7,63.3h-3.3V42.8c0-2.8,1.3-4.2,4-4.2h2.5c2.6,0,4,1.4,4,4.2v20.5h-3.3v-9.1h-3.8V63.3z M92.5,51.3V43
			c0-1-0.5-1.4-1.4-1.4h-0.9c-1,0-1.4,0.5-1.4,1.4v8.2H92.5z"/>
	</g>
	<g>
		<path d="M61.1,36.8V26.8h2.1c1.1,0,1.7,0.6,1.7,1.9v6.7c0,1-0.5,1.5-1.4,1.5H61.1z M62.3,35.6h0.9c0.3,0,0.5-0.1,0.5-0.4v-6.4
			c0-0.5-0.2-0.7-0.5-0.7h-0.8V35.6z"/>
		<path d="M67.2,36.8c-1,0-1.4-0.6-1.4-1.7v-6.6c0-1.1,0.5-1.7,1.4-1.7h1.1c1,0,1.4,0.6,1.4,1.7v6.6c0,1.1-0.5,1.7-1.4,1.7H67.2z
			 M67.5,35.6h0.6c0.3,0,0.5-0.2,0.5-0.6v-6.4c0-0.4-0.2-0.6-0.5-0.6h-0.6c-0.3,0-0.5,0.2-0.5,0.6V35C67,35.4,67.2,35.6,67.5,35.6z"
			/>
	</g>
	<path class="st0" d="M58,32"/>
	<path class="st0" d="M37,32"/>
	<line class="st0" x1="71.5" y1="32.5" x2="96" y2="32.5"/>
	<line class="st0" x1="36.5" y1="32.5" x2="58.5" y2="32.5"/>
	<g>
		<path d="M91.3,38h-1.9l1.3-3.3h2.5L91.3,38z"/>
	</g>
</g>
<g id="Camada_2">
	<g>
	</g>
	<g>
	</g>
	<g>
	</g>
	<g>
	</g>
	<g>
	</g>
	<g>
	</g>
	<g>
	</g>
	<g>
	</g>
	<g>
	</g>
	<g>
	</g>
	<g>
	</g>
	<g>
	</g>
	<g>
	</g>
	<g>
	</g>
	<g>
	</g>
</g>
</svg>
